<svg width="28" height="19" viewBox="0 0 28 19" fill="none" xmlns="http://www.w3.org/2000/svg">
<path d="M27.1925 6.31628C27.3971 6.16491 27.7015 6.30652 27.7015 6.54577V16.5311C27.7015 17.8251 26.5733 18.8749 25.1828 18.8749H3.35447C1.96396 18.8749 0.835815 17.8251 0.835815 16.5311V6.55066C0.835815 6.30652 1.13491 6.1698 1.34479 6.32116C2.52017 7.17077 4.07858 8.24988 9.43073 11.868C10.5379 12.62 12.4059 14.202 14.2686 14.1923C16.1419 14.2069 18.0466 12.5907 19.1118 11.868C24.464 8.24988 26.0171 7.16589 27.1925 6.31628ZM14.2686 12.6249C15.486 12.6444 17.2386 11.1991 18.1201 10.6034C25.0831 5.90124 25.6131 5.49109 27.2187 4.31921C27.5231 4.09949 27.7015 3.75769 27.7015 3.39636V2.46863C27.7015 1.17468 26.5733 0.124878 25.1828 0.124878H3.35447C1.96396 0.124878 0.835815 1.17468 0.835815 2.46863V3.39636C0.835815 3.75769 1.01422 4.0946 1.31856 4.31921C2.9242 5.4862 3.45417 5.90124 10.4172 10.6034C11.2987 11.1991 13.0513 12.6444 14.2686 12.6249Z" fill="white"/>
</svg>
