<svg width="28" height="21" viewBox="0 0 28 21" fill="none" xmlns="http://www.w3.org/2000/svg">
<path d="M24.328 5.06021C24.3451 5.28228 24.3451 5.5044 24.3451 5.72647C24.3451 12.4999 18.8049 20.3046 8.67909 20.3046C5.55951 20.3046 2.66158 19.4638 0.223877 18.0044C0.66711 18.052 1.09324 18.0679 1.55352 18.0679C4.12755 18.0679 6.49709 17.2589 8.38929 15.8788C5.96864 15.8312 3.94006 14.3559 3.24113 12.3255C3.5821 12.373 3.92301 12.4048 4.28103 12.4048C4.77537 12.4048 5.26976 12.3413 5.72999 12.2303C3.20708 11.7544 1.31483 9.69221 1.31483 7.20172V7.1383C2.04781 7.51901 2.90022 7.75695 3.80364 7.78864C2.32056 6.86857 1.34893 5.29815 1.34893 3.52149C1.34893 2.56972 1.62163 1.69726 2.09897 0.935831C4.80942 4.04497 8.88363 6.0754 13.4521 6.29752C13.3669 5.91681 13.3157 5.52027 13.3157 5.12369C13.3157 2.30005 15.7705 -6.10352e-05 18.8219 -6.10352e-05C20.4072 -6.10352e-05 21.8391 0.618594 22.8449 1.61796C24.0893 1.39589 25.2826 0.96757 26.3395 0.380653C25.9303 1.5704 25.061 2.56977 23.9189 3.20425C25.0269 3.09326 26.1009 2.80766 27.0895 2.41113C26.3396 3.42632 25.402 4.33047 24.328 5.06021Z" fill="white"/>
</svg>
